<svg width="28" height="46" viewBox="0 0 28 46" fill="none" xmlns="http://www.w3.org/2000/svg">
<path d="M27.7917 2.10405C27.7917 1.77806 27.6622 1.46542 27.4317 1.2349C27.2011 1.00439 26.8885 0.874887 26.5625 0.874887H20.4167C17.3219 0.720727 14.292 1.79772 11.9888 3.87056C9.68566 5.9434 8.29655 8.84356 8.125 11.9374V18.5749H1.97917C1.65317 18.5749 1.34053 18.7044 1.11001 18.9349C0.879501 19.1654 0.75 19.4781 0.75 19.8041V26.1957C0.75 26.5217 0.879501 26.8344 1.11001 27.0649C1.34053 27.2954 1.65317 27.4249 1.97917 27.4249H8.125V43.8957C8.125 44.2217 8.2545 44.5344 8.48501 44.7649C8.71553 44.9954 9.02817 45.1249 9.35417 45.1249H16.7292C17.0552 45.1249 17.3678 44.9954 17.5983 44.7649C17.8288 44.5344 17.9583 44.2217 17.9583 43.8957V27.4249H24.3992C24.6725 27.4288 24.9394 27.3415 25.1575 27.1768C25.3757 27.012 25.5327 26.7793 25.6038 26.5153L27.3738 20.1236C27.4227 19.942 27.4292 19.7516 27.393 19.567C27.3567 19.3825 27.2786 19.2087 27.1646 19.0591C27.0506 18.9095 26.9038 18.788 26.7355 18.7041C26.5672 18.6201 26.3818 18.5759 26.1938 18.5749H17.9583V11.9374C18.0195 11.3289 18.3052 10.765 18.7598 10.3559C19.2144 9.94681 19.8051 9.72182 20.4167 9.72489H26.5625C26.8885 9.72489 27.2011 9.59539 27.4317 9.36487C27.6622 9.13436 27.7917 8.82172 27.7917 8.49572V2.10405Z" fill="#1D5DBC"/>
</svg>
