<svg width="60" height="60" viewBox="0 0 60 60" fill="none" xmlns="http://www.w3.org/2000/svg">
<path d="M52.375 20.81C52.3498 18.9166 51.9953 17.0419 51.3275 15.27C50.7484 13.7754 49.8638 12.418 48.7304 11.2846C47.597 10.1512 46.2396 9.26663 44.745 8.6875C42.9958 8.03089 41.1479 7.67585 39.28 7.6375C36.875 7.53 36.1125 7.5 30.0075 7.5C23.9025 7.5 23.12 7.5 20.7325 7.6375C18.8654 7.67614 17.0184 8.03117 15.27 8.6875C13.7751 9.26622 12.4176 10.1506 11.2841 11.2841C10.1506 12.4176 9.26622 13.7751 8.6875 15.27C8.02958 17.0178 7.67531 18.8653 7.64 20.7325C7.5325 23.14 7.5 23.9025 7.5 30.0075C7.5 36.1125 7.5 36.8925 7.64 39.2825C7.6775 41.1525 8.03 42.9975 8.6875 44.75C9.26719 46.2444 10.1522 47.6014 11.2861 48.7344C12.4199 49.8674 13.7777 50.7514 15.2725 51.33C17.0161 52.013 18.8634 52.3934 20.735 52.455C23.1425 52.5625 23.905 52.595 30.01 52.595C36.115 52.595 36.8975 52.595 39.285 52.455C41.1529 52.4182 43.0009 52.064 44.75 51.4075C46.2442 50.8277 47.6013 49.9429 48.7346 48.8096C49.8679 47.6763 50.7527 46.3192 51.3325 44.825C51.99 43.075 52.3425 41.23 52.38 39.3575C52.4875 36.9525 52.52 36.19 52.52 30.0825C52.515 23.9775 52.515 23.2025 52.375 20.81V20.81ZM29.9925 41.5525C23.6075 41.5525 18.435 36.38 18.435 29.995C18.435 23.61 23.6075 18.4375 29.9925 18.4375C33.0577 18.4375 35.9974 19.6552 38.1649 21.8226C40.3323 23.9901 41.55 26.9298 41.55 29.995C41.55 33.0602 40.3323 35.9999 38.1649 38.1674C35.9974 40.3348 33.0577 41.5525 29.9925 41.5525V41.5525ZM42.01 20.705C41.656 20.7053 41.3054 20.6358 40.9783 20.5005C40.6512 20.3652 40.3539 20.1667 40.1036 19.9164C39.8533 19.6661 39.6548 19.3688 39.5195 19.0417C39.3842 18.7146 39.3147 18.364 39.315 18.01C39.315 17.6563 39.3847 17.306 39.52 16.9791C39.6554 16.6523 39.8538 16.3554 40.104 16.1052C40.3541 15.8551 40.6511 15.6567 40.9779 15.5213C41.3047 15.3859 41.655 15.3163 42.0088 15.3163C42.3625 15.3163 42.7128 15.3859 43.0396 15.5213C43.3664 15.6567 43.6634 15.8551 43.9135 16.1052C44.1637 16.3554 44.3621 16.6523 44.4975 16.9791C44.6328 17.306 44.7025 17.6563 44.7025 18.01C44.7025 19.5 43.4975 20.705 42.01 20.705Z" fill="#1D5DBC"/>
<path d="M29.985 37.4549C34.1313 37.4549 37.4925 34.0937 37.4925 29.9474C37.4925 25.8012 34.1313 22.4399 29.985 22.4399C25.8388 22.4399 22.4775 25.8012 22.4775 29.9474C22.4775 34.0937 25.8388 37.4549 29.985 37.4549Z" fill="#1D5DBC"/>
</svg>
