<svg width="50" height="41" viewBox="0 0 50 41" fill="none" xmlns="http://www.w3.org/2000/svg">
<path d="M15.7075 40.6575C34.575 40.6575 44.8975 25.01 44.8975 11.465C44.8975 11.025 44.8975 10.585 44.8775 10.145C46.8877 8.68831 48.6223 6.88514 50 4.82C48.1241 5.64884 46.1359 6.1956 44.1 6.4425C46.2451 5.15823 47.8512 3.13905 48.62 0.76C46.6037 1.95615 44.3964 2.79593 42.095 3.2425C41.137 2.21895 39.979 1.40302 38.6927 0.845262C37.4065 0.287508 36.0195 -0.000186786 34.6175 9.09834e-08C31.8957 0.00198659 29.2859 1.08411 27.3612 3.00874C25.4366 4.93337 24.3545 7.54316 24.3525 10.265C24.3525 11.065 24.4525 11.845 24.6125 12.605C20.5322 12.4001 16.5407 11.3394 12.897 9.49167C9.25326 7.64398 6.03887 5.05063 3.4625 1.88C2.15321 4.14139 1.75352 6.81627 2.34459 9.36161C2.93565 11.9069 4.47317 14.132 6.645 15.585C5.01769 15.5287 3.42647 15.0902 2 14.305V14.445C2.0022 16.8133 2.82183 19.1082 4.3204 20.942C5.81898 22.7758 7.90464 24.0361 10.225 24.51C9.34563 24.7526 8.43721 24.8737 7.525 24.87C6.8625 24.87 6.2225 24.81 5.6 24.69C6.25409 26.7295 7.53004 28.5131 9.24895 29.7909C10.9679 31.0686 13.0435 31.7764 15.185 31.815C11.5514 34.6714 7.06192 36.2213 2.44 36.215C1.62 36.215 0.8 36.175 0 36.075C4.69178 39.069 10.1418 40.659 15.7075 40.6575Z" fill="#1D5DBC"/>
</svg>
