<svg width="164" height="71" viewBox="0 0 164 71" fill="none" xmlns="http://www.w3.org/2000/svg">
<path d="M7.524 51.0041H15.804V55.0001H2.484V29.8721H7.524V51.0041ZM37.5474 44.5961C37.5474 45.3161 37.4994 45.9641 37.4034 46.5401H22.8234C22.9434 47.9801 23.4474 49.1081 24.3354 49.9241C25.2234 50.7401 26.3154 51.1481 27.6114 51.1481C29.4834 51.1481 30.8154 50.3441 31.6074 48.7361H37.0434C36.4674 50.6561 35.3634 52.2401 33.7314 53.4881C32.0994 54.7121 30.0954 55.3241 27.7194 55.3241C25.7994 55.3241 24.0714 54.9041 22.5354 54.0641C21.0234 53.2001 19.8354 51.9881 18.9714 50.4281C18.1314 48.8681 17.7114 47.0681 17.7114 45.0281C17.7114 42.9641 18.1314 41.1521 18.9714 39.5921C19.8114 38.0321 20.9874 36.8321 22.4994 35.9921C24.0114 35.1521 25.7514 34.7321 27.7194 34.7321C29.6154 34.7321 31.3074 35.1401 32.7954 35.9561C34.3074 36.7721 35.4714 37.9361 36.2874 39.4481C37.1274 40.9361 37.5474 42.6521 37.5474 44.5961ZM32.3274 43.1561C32.3034 41.8601 31.8354 40.8281 30.9234 40.0601C30.0114 39.2681 28.8954 38.8721 27.5754 38.8721C26.3274 38.8721 25.2714 39.2561 24.4074 40.0241C23.5674 40.7681 23.0514 41.8121 22.8594 43.1561H32.3274ZM46.2662 28.3601V55.0001H41.2262V28.3601H46.2662ZM69.7857 44.5961C69.7857 45.3161 69.7377 45.9641 69.6417 46.5401H55.0617C55.1817 47.9801 55.6857 49.1081 56.5737 49.9241C57.4617 50.7401 58.5537 51.1481 59.8497 51.1481C61.7217 51.1481 63.0537 50.3441 63.8457 48.7361H69.2817C68.7057 50.6561 67.6017 52.2401 65.9697 53.4881C64.3377 54.7121 62.3337 55.3241 59.9577 55.3241C58.0377 55.3241 56.3097 54.9041 54.7737 54.0641C53.2617 53.2001 52.0737 51.9881 51.2097 50.4281C50.3697 48.8681 49.9497 47.0681 49.9497 45.0281C49.9497 42.9641 50.3697 41.1521 51.2097 39.5921C52.0497 38.0321 53.2257 36.8321 54.7377 35.9921C56.2497 35.1521 57.9897 34.7321 59.9577 34.7321C61.8537 34.7321 63.5457 35.1401 65.0337 35.9561C66.5457 36.7721 67.7097 37.9361 68.5257 39.4481C69.3657 40.9361 69.7857 42.6521 69.7857 44.5961ZM64.5657 43.1561C64.5417 41.8601 64.0737 40.8281 63.1617 40.0601C62.2497 39.2681 61.1337 38.8721 59.8137 38.8721C58.5657 38.8721 57.5097 39.2561 56.6457 40.0241C55.8057 40.7681 55.2897 41.8121 55.0977 43.1561H64.5657ZM85.2725 55.0001L78.5045 46.5041V55.0001H73.4645V28.3601H78.5045V43.5161L85.2005 35.0561H91.7525L82.9685 45.0641L91.8245 55.0001H85.2725ZM93.1919 44.9561C93.1919 42.9401 93.5879 41.1521 94.3799 39.5921C95.1959 38.0321 96.2879 36.8321 97.6559 35.9921C99.0479 35.1521 100.596 34.7321 102.3 34.7321C103.788 34.7321 105.084 35.0321 106.188 35.6321C107.316 36.2321 108.216 36.9881 108.888 37.9001V35.0561H113.964V55.0001H108.888V52.0841C108.24 53.0201 107.34 53.8001 106.188 54.4241C105.06 55.0241 103.752 55.3241 102.264 55.3241C100.584 55.3241 99.0479 54.8921 97.6559 54.0281C96.2879 53.1641 95.1959 51.9521 94.3799 50.3921C93.5879 48.8081 93.1919 46.9961 93.1919 44.9561ZM108.888 45.0281C108.888 43.8041 108.648 42.7601 108.168 41.8961C107.688 41.0081 107.04 40.3361 106.224 39.8801C105.408 39.4001 104.532 39.1601 103.596 39.1601C102.66 39.1601 101.796 39.3881 101.004 39.8441C100.212 40.3001 99.5639 40.9721 99.0599 41.8601C98.5799 42.7241 98.3399 43.7561 98.3399 44.9561C98.3399 46.1561 98.5799 47.2121 99.0599 48.1241C99.5639 49.0121 100.212 49.6961 101.004 50.1761C101.82 50.6561 102.684 50.8961 103.596 50.8961C104.532 50.8961 105.408 50.6681 106.224 50.2121C107.04 49.7321 107.688 49.0601 108.168 48.1961C108.648 47.3081 108.888 46.2521 108.888 45.0281Z" fill="#F3CD46"/>
<path d="M133.417 17.3546L124.929 31.1681C124.533 31.8132 123.591 31.8008 123.212 31.1455L114.974 16.9135C114.582 16.2372 115.083 15.3934 115.864 15.4129L132.59 15.8313C133.361 15.8506 133.821 16.6978 133.417 17.3546Z" stroke="#1D5DBC" stroke-width="4"/>
<path d="M135.402 30.2764L143.708 15.4932C144.084 14.8233 145.044 14.8105 145.438 15.4701L154.162 30.0738C154.558 30.7363 154.086 31.5784 153.314 31.5866L136.285 31.7661C135.515 31.7742 135.025 30.9471 135.402 30.2764Z" stroke="#1D5DBC" stroke-width="4"/>
<path d="M132.388 37.181L142.343 50.4474C142.813 51.0734 142.414 51.972 141.634 52.0434L124.681 53.5961C123.911 53.6666 123.355 52.8729 123.686 52.1732L130.683 37.3542C131.005 36.6732 131.935 36.5787 132.388 37.181L133.987 35.9806L132.388 37.181Z" stroke="#F3CD46" stroke-width="4"/>
</svg>
